# xmcd
# Copyright (C) 1995-1998 Ti Kan
#
# Track frame offsets:
#       150
#       18126
#       33273
#       47084
#       65019
#       91793
#       105402
#       134272
#       155326
#       173683
#       197185
#       230223
#
# Disc length: 3292 seconds
#
# Revision: 11
# Processed by: cddbd v1.5.1PL0 Copyright (c) Steve Scherf et al.
# Submitted via: CD-Transfer v1.0
#
DISCID=940cda0c
DTITLE=Monica - Euro Express 583
DYEAR=04
DGENRE=
TTITLE0=Walk Into The Sun (Radio)
TTITLE1=My Neck, My Back
TTITLE2=S.o.s. (Vertigo Radio Edit)
TTITLE3=Better Things (Radio Edit)
TTITLE4=You Never Know (Flip and Fill Remix)
TTITLE5=Do You Know (I Go Crazy)
TTITLE6=Heart (Grainger and Parmar Remix)
TTITLE7=Tempted To Touch
TTITLE8=Set The Stakes High (Radio Edit)
TTITLE9=Diary (Hani Short Club)
TTITLE10=If You Wanna
TTITLE11=U Should've Known Better (Bass Fonseca Radio)
EXTD=
EXTT0=
EXTT1=
EXTT2=
EXTT3=
EXTT4=
EXTT5=
EXTT6=
EXTT7=
EXTT8=
EXTT9=
EXTT10=
EXTT11=
PLAYORDER=
